<?xml version="1.0" encoding="utf-8"?>
        
<!DOCTYPE svg PUBLIC "-//W3C//DTD SVG 20010904//EN" "http://www.w3.org/TR/2001/REC-SVG-20010904/DTD/svg10.dtd">
        
<svg width="1280px" height="800px"
xmlns="http://www.w3.org/2000/svg">

<!-- 
   coords:

    0 _ _ x 
    |
    |
    y 
-->

<path 
fill="#FFFFFF"
fill-opacity="1" 
d="
M0,0 
    h1280
    v800
    h-1280
    v-800z 
M640,400 
    c-0.438-5.286-1.213-6.87-4.041-16.569
	c-2.829-9.698-1.617-18.588-1.213-31.52
    c0.404-12.931-3.232-17.78-3.232-17.78
    s-4.85-21.417-5.254-29.5
	c-0.403-8.082-4.041-17.78-5.657-23.842
    s-11.314-10.507-16.972-12.123
    c-5.658-1.617-17.781-4.041-22.226-9.294
	c-2.393-2.812-3.024-6.918-3.103-10.118
    c1.729-0.566,3.054-1.31,3.668-2.247
    c1.891-2.829,2.829-8.082,2.829-8.082
	s4.041-8.486,4.041-15.76
    c0-7.274-0.129-12.398-3.362-16.973
    c-3.233-4.574-5.253-9.698-17.247-9.698
    s-16.843,3.233-19.671,10.232
	c-2.829,7.015-0.938,16.439-0.938,16.439
    s-1.746,4.849,0.404,8.082
    c2.15,3.232,3.637,4.849,3.637,4.849
    l1.858,7.516
	c0,0,0,6.465-0.404,12.123
    c-0.404,5.657-4.85,3.232-9.294,6.465
    c-4.445,3.233-16.164,6.062-23.034,10.103
    s-6.87,10.103-6.87,14.952
	c0,4.85-3.637,14.548-4.849,23.842
    c-1.212,9.294,0,11.315,0,11.315
    s-6.466,14.548-8.891,24.246
	c-2.424,9.698-2.021,21.821-2.829,28.287
    c-0.808,6.465-2.667,10.037-4.041,15.356
    c-2.133,8.243,0.808,10.91,0.808,10.91
    l1.212,7.274
	l8.082,1.212
    c0,0,6.466-2.828,7.678-8.486
    c1.212-5.657-2.425-14.952-2.829-20.205
    c-0.404-5.254,2.021-12.527,6.466-21.014
	c4.445-8.486,5.657-18.992,6.062-23.438
    c0.404-4.445,6.062-7.678,8.486-14.548
    c2.425-6.87,0-12.527,3.233-12.931
	c1.358-0.162,1.859-0.841,1.923-0.921
    c-0.064,0.162-0.711,1.422-1.115,5.771
    c-0.808,8.486,6.466,25.862,6.466,38.39
	s-2.425,17.376-5.253,28.287
    s-2.424,34.753-3.637,43.644
    s0,44.047-0.404,50.108
    c-0.404,6.062-1.616,5.657-3.233,10.911
	c-1.616,5.253,1.617,32.328,1.212,43.238
    c-0.404,10.911-1.616,6.87-2.424,14.548
    c-0.809,7.678-4.85,5.657-9.294,9.698
	c-4.445,4.041-1.212,7.274-1.212,12.527
    s6.466,8.891,8.486,10.507
    s2.021,1.212,4.849-1.616
    c2.829-2.829,8.356-14.695,8.89-21.692
	c0.534-6.999,4.316-0.533,5.383-9.166
    c1.083-8.614-2.15-8.082-1.617-12.932
    c0.55-4.85,5.399-11.847,9.165-21.014
	c3.767-9.147,1.083-24.246,1.083-28.544
    c0-4.315,4.3-1.616,4.3-8.082
    s1.083-16.164,1.083-21.014
    c0-4.849,5.932-12.397,9.699-23.179
	c3.766-10.766,2.15-27.074,5.383-27.479
    c0,0,1.746-0.712,3.135,0.306
    c1.389,1.019,2.36,17.134,3.637,27.479
	c1.277,10.346,8.082,28.69,8.051,39.845
    c-0.033,11.152-2.393,6.352-2.021,20.609
    c0.371,14.239,3.927,23.469,4.202,38.146
	c0.275,14.677-4.849,19.526-3.394,23.681
    c1.26,3.588,6.383,6.044,6.27,6.53
    c2.021,0.016,7.355,0.387,12.303,2.262
	c7.111,2.699,5.56,8.616,12.704,9.149
    c7.145,0.534,10.636,2.15,10.75-2.182
    c0.113-4.349-3.605-8.858-7.679-12.123
	c-4.074-3.266-7.678-6.466-7.678-6.466
    s-4.849-3.232-6.466-10.506
    c-1.616-7.274,2.021-55.767,3.233-65.465
	c1.212-9.698,2.021-29.499,2.828-40.41
    c0.809-10.91-0.403-45.259-3.232-59.403
    c-2.829-14.144-6.062-28.287-4.445-36.369
	s2.829-24.246,2.829-24.246l6.466,20.609
    c0,0,1.777,10.798,3.232,16.164
    c1.471,5.366,4.445,19.801,4.445,19.801
    l2.021,14.951
	c0,0-2.668,26.962-0.404,28.288
    c2.262,1.309,9.698,0,9.698,0
    l5.657-4.041
    z
    "/>

/>
</svg>
