<?xml version="1.0" encoding="UTF-8" standalone="no"?>
<!DOCTYPE svg PUBLIC "-//W3C//DTD SVG 1.1//EN" "http://www.w3.org/Graphics/SVG/1.1/DTD/svg11.dtd">
<!--Generated by Intaglio, www.PurgatoryDesign.com-->
<svg version="1.1" viewBox="7,7,299,299" width="299" height="299" xmlns="http://www.w3.org/2000/svg" xmlns:xlink="http://www.w3.org/1999/xlink"><path fill="#ee5d40" fill-opacity="0.25" d="M42.4552,74.9724 L151.602,75.0928 L138.844,84.3263 L186.676,153.079 L42.7052,152.212"/><path fill="#085bdd" fill-opacity="0.24" d="M42.7052,213.83 L127.313,213.83 L195.853,166.185 L243.607,234.61 L42.7052,234.61"/><path fill="#5aeb33" fill-opacity="0.25" d="M166.25,96.4364 L267.848,95.8578 L199.282,143.902 L166.5,96.4364 Z"/><path fill="none" stroke="#000100" stroke-width="0.283465" d="M42.2052,8 L42.7052,305.5"/><path fill="none" stroke="#000" stroke-width="0.425197" d="M42.7052,200.941 L118.064,200.941"/><path fill="none" stroke="#000" stroke-width="0.425197" d="M42.4552,84.3357 L139.233,84.1893"/><path fill="none" stroke="#000" stroke-width="0.425197" d="M42.2052,74.9724 L153.483,75"/><text fill="#000100" font-family="Courier" font-size="9" transform="matrix(1,0,0,1,272.976,120.205)" xml:space="preserve"><tspan>a</tspan></text><text fill="#000100" font-family="Courier" font-size="9" transform="matrix(1,0,0,1,255.641,96.3573)" xml:space="preserve"><tspan>b</tspan></text><text fill="#000100" font-family="Courier" font-size="9" transform="matrix(1,0,0,1,158.375,79.8576)" xml:space="preserve"><tspan>d</tspan></text><path fill="none" stroke="#000" stroke-width="0.283465" d="M8,8 L305.5,8 L305.5,305.5 L8,305.5 L8,8 Z"/><text fill="#000100" font-family="Courier" font-size="9" transform="matrix(1,0,0,1,255.597,216.436)" xml:space="preserve"><tspan>K</tspan></text><text fill="#000100" font-family="Courier" font-size="9" transform="matrix(1,0,0,1,214.122,161.054)" xml:space="preserve"><tspan>l</tspan></text><path fill="none" stroke="#000" stroke-width="0.425197" d="M42.7052,152.212 L186.676,152.499"/><path fill="none" stroke="#000" stroke-width="0.425197" d="M127.313,213.83 L42.7052,213.83"/><path fill="none" stroke="#000" stroke-width="0.425197" d="M243.607,234.61 L42.7052,234.61"/><g><path fill="#ffee2f" stroke="#000100" stroke-width="0.283465" d="M126.175,214.42 L116.997,201.314 L185.806,153.134 L194.983,166.24 L126.175,214.42 Z"/><path fill="#ee5d40" stroke="#000100" stroke-width="0.283465" d="M137.626,84.3248 L150.732,75.1476 L198.913,143.956 L185.806,153.134 L137.626,84.3248 Z"/><path fill="#085bde" stroke="#000100" stroke-width="0.283465" d="M194.983,166.24 L208.09,157.063 L256.27,225.872 L243.164,235.049 L194.983,166.24 Z"/><path fill="#8bf278" stroke="#000100" stroke-width="0.283465" d="M208.09,157.063 L198.913,143.956 L267.721,95.7759 L276.899,108.882 L208.09,157.063 Z"/><g><path fill="none" stroke="#000100" stroke-opacity="0.92" stroke-width="0.283465" d="M270.781,93.4856 C272.039,95.2827,271.602,97.7597,269.805,99.0181 C268.008,100.276,265.531,99.8397,264.273,98.0426 C263.014,96.2454,263.451,93.7684,265.248,92.51 C267.045,91.2517,269.522,91.6884,270.781,93.4856 Z"/><path fill="none" stroke="#000100" stroke-opacity="0.92" stroke-width="0.283465" d="M280.03,106.694 C281.288,108.492,280.851,110.969,279.054,112.227 C277.257,113.485,274.78,113.049,273.522,111.251 C272.263,109.454,272.7,106.977,274.497,105.719 C276.294,104.46,278.771,104.897,280.03,106.694 Z"/></g><g><path fill="none" stroke="#000100" stroke-opacity="0.92" stroke-width="0.283465" d="M120.497,198.249 C121.755,200.046,121.319,202.523,119.522,203.781 C117.724,205.04,115.247,204.603,113.989,202.806 C112.731,201.008,113.167,198.531,114.965,197.273 C116.762,196.015,119.239,196.451,120.497,198.249 Z"/><path fill="none" stroke="#000100" stroke-opacity="0.92" stroke-width="0.283465" d="M129.746,211.457 C131.004,213.255,130.568,215.732,128.77,216.99 C126.973,218.248,124.496,217.812,123.238,216.014 C121.98,214.217,122.416,211.74,124.213,210.482 C126.011,209.224,128.488,209.66,129.746,211.457 Z"/></g><g><path fill="none" stroke="#000100" stroke-opacity="0.92" stroke-width="0.283465" d="M135.745,80.9785 C137.542,79.7202,140.019,80.1569,141.277,81.9541 C142.536,83.7512,142.099,86.2282,140.302,87.4866 C138.505,88.745,136.028,88.3082,134.769,86.5111 C133.511,84.7139,133.948,82.2369,135.745,80.9785 Z"/><path fill="none" stroke="#000100" stroke-opacity="0.92" stroke-width="0.283465" d="M148.954,71.7296 C150.751,70.4712,153.228,70.908,154.486,72.7051 C155.745,74.5023,155.308,76.9793,153.511,78.2377 C151.714,79.4961,149.237,79.0593,147.978,77.2621 C146.72,75.465,147.157,72.988,148.954,71.7296 Z"/></g><g><path fill="none" stroke="#000100" stroke-opacity="0.92" stroke-width="0.283465" d="M240.508,231.262 C242.305,230.004,244.782,230.441,246.04,232.238 C247.299,234.035,246.862,236.512,245.065,237.77 C243.268,239.029,240.791,238.592,239.532,236.795 C238.274,234.998,238.711,232.521,240.508,231.262 Z"/><path fill="none" stroke="#000100" stroke-opacity="0.92" stroke-width="0.283465" d="M253.717,222.013 C255.514,220.755,257.991,221.192,259.249,222.989 C260.508,224.786,260.071,227.263,258.274,228.521 C256.477,229.78,254,229.343,252.741,227.546 C251.483,225.749,251.92,223.272,253.717,222.013 Z"/></g><path fill="none" stroke="#000100" stroke-width="0.283465" d="M206.112,148.681 C209.656,153.743,208.426,160.718,203.365,164.262 C198.304,167.806,191.328,166.576,187.784,161.515 C184.24,156.454,185.47,149.478,190.531,145.934 C195.592,142.39,202.568,143.62,206.112,148.681 Z"/><path fill="none" stroke="#000100" stroke-width="0.283465" d="M272.576,101.838 C301.799,143.572,291.656,201.094,249.922,230.317 C208.187,259.54,150.665,249.397,121.443,207.662 C92.2199,165.928,102.363,108.406,144.097,79.1832 C185.831,49.9605,243.353,60.1032,272.576,101.838 Z"/></g><text fill="#000100" font-family="Courier" font-size="9" transform="matrix(1,0,0,1,197.95,138.546)" xml:space="preserve"><tspan>c</tspan></text><text fill="#000100" font-family="Courier" font-size="9" transform="matrix(1,0,0,1,133.844,96.0531)" xml:space="preserve"><tspan>e</tspan></text><text fill="#000100" font-family="Courier" font-size="9" transform="matrix(1,0,0,1,115.844,191.553)" xml:space="preserve"><tspan>g</tspan></text><text fill="#000100" font-family="Courier" font-size="9" transform="matrix(1,0,0,1,133.192,217.976)" xml:space="preserve"><tspan>h</tspan></text><text fill="#000100" font-family="Courier" font-size="9" transform="matrix(1,0,0,1,173.844,155.553)" xml:space="preserve"><tspan>f</tspan></text><text fill="#000100" font-family="Courier" font-size="9" transform="matrix(1,0,0,1,190.755,177.553)" xml:space="preserve"><tspan>i</tspan></text><text fill="#000100" font-family="Courier" font-size="9" transform="matrix(1,0,0,1,228.719,231.466)" xml:space="preserve"><tspan>j</tspan></text><path fill="#ee5d40" stroke="#000" stroke-width="0.283465" d="M42.4552,74.9724 L8,74.9724 L8,84.3304 L42.4552,84.3304 L42.4552,74.9724 Z"/><path fill="#ee5d40" stroke="#000" stroke-width="0.283465" d="M42.7052,152.212 L8,152.212 L8,84.3304 L42.7052,84.3304 L42.7052,152.212 Z"/><path fill="#ffee3b" stroke="#000" stroke-width="0.283465" d="M42.7052,200.941 L8,200.941 L8,152.212 L42.7052,152.212 L42.7052,200.941 Z"/><path fill="#ffee3b" stroke="#000" stroke-width="0.283465" d="M42.7052,213.83 L8,213.83 L8,200.941 L42.7052,200.941 L42.7052,213.83 Z"/><path fill="#00f" stroke="#000" stroke-width="0.283465" d="M42.7052,234.61 L8,234.61 L8,213.83 L42.7052,213.83 L42.7052,234.61 Z"/><path fill="#ffee3b" fill-opacity="0.28" d="M42.7052,152.212 L186.806,153.134 L118.243,200.527 L127.492,213.736 L42.7052,213.83 Z"/><path fill="none" stroke="#000100" stroke-width="0.283465" d="M166.5,96.4364 L267.527,95.7641"/></svg>
