<?xml version="1.0" encoding="UTF-8" standalone="no"?>
<!DOCTYPE svg PUBLIC "-//W3C//DTD SVG 1.1//EN" "http://www.w3.org/Graphics/SVG/1.1/DTD/svg11.dtd">
<!--Generated by Intaglio, www.PurgatoryDesign.com-->
<svg version="1.1" viewBox="0,0,559,783" width="559" height="783" xmlns="http://www.w3.org/2000/svg" xmlns:xlink="http://www.w3.org/1999/xlink" xmlns:intaglio="http://purgatorydesign.com/namespaces/intaglio" intaglio:grid="36,36,1,1,0.5,#9999bf,1,0,0,0" intaglio:guides="0.8,#f0f,1,1"><image xlink:href="1.jpeg" width="1156" height="1496" transform="matrix(0.465398,0,0,0.465398,14,6.76471)"/><path fill="#fffffe" stroke="#000100" d="M237,693.25 C238.5,692.25,239.25,688.5,239.25,686.25 C239.25,684,243.75,681.5,243.75,678.5 C243.75,675.5,245.5,665.5,248,663 C250.5,660.5,254.25,660,255.75,655.5 C257.25,651,254.5,644.5,254.75,643.25 C255,642,257.25,636.5,256.5,633 C255.75,629.5,254.25,626,255.25,622.5 C256.25,619,256.75,609.25,256.75,609.25 C256.75,609.25,253.5,611,248.25,610.75 C243,610.5,238.5,609,238.5,609 C238.5,609,240.5,631.75,239.5,636.25 C238.5,640.75,232.5,652,231.5,653.75 C230.5,655.5,228.75,658,226.25,659.5 C223.75,661,218,666.5,216.75,668 C215.5,669.5,213,672.5,213.75,675.25 C214.5,678,216.5,679.25,216.5,679.25 C216.5,679.25,216.75,682.75,218,683.5 C219.25,684.25,219.75,686,221.5,686.75 C223.25,687.5,221.5,688.75,223.75,690 C226,691.25,226.5,691.75,230.25,692.75 C234,693.75,235.5,694.25,237,693.25 Z"/><path fill="#fffffe" stroke="#000100" d="M328,615.5 C328,615.5,331.25,625.5,331,630 C330.75,634.5,329.75,638.75,330.5,641.75 C331.25,644.75,333.75,646.103,332.75,648.75 C331.75,651.397,329.75,655.75,330.5,659.25 C331.25,662.75,337,666,337.5,671 C338,676,338.25,683.5,340,687 C341.75,690.5,344.94,690.686,345,692.25 C345.125,695.5,345.5,699,345.5,699 C345.5,699,346.75,703,352.5,700.75 C353.972,700.174,353.25,700,356.75,699 C360.25,698,363.5,699.5,364.75,698 C366,696.5,368.25,696,368.25,693.5 C368.25,691,370.75,691.75,370.75,689.5 C370.75,687.25,362.75,670.875,358.5,667.625 C354.25,664.375,356.125,666.25,355.125,664.625 C352.453,660.282,353.75,660.603,352.25,656 C350.75,651.397,349.25,650.5,349.25,648 C349.25,645.5,349,639,347.75,635.75 C346.5,632.5,345.75,629.5,345.75,625.5 C345.75,621.5,345.75,612.5,345.75,612.5 C345.75,612.5,331,615.25,328,615.25"/></svg>
