<?xml version="1.0" encoding="UTF-8" standalone="no"?>
<!DOCTYPE svg PUBLIC "-//W3C//DTD SVG 1.1//EN" "http://www.w3.org/Graphics/SVG/1.1/DTD/svg11.dtd">
<!--Generated by Intaglio, www.PurgatoryDesign.com-->
<svg version="1.1" viewBox="0,0,368.504,595.276" width="368.504" height="595.276" xmlns="http://www.w3.org/2000/svg" xmlns:xlink="http://www.w3.org/1999/xlink" xmlns:intaglio="http://purgatorydesign.com/namespaces/intaglio" intaglio:grid="14.1732,14.173,1,1,0.15,#0080ff,1,0,0,0" intaglio:guides="0.8,#f0f,1,1" intaglio:ruler="0,10,10,1,1,0,0"><path fill="#5e5e5e" stroke="#fff" stroke-width="5.66929" d="M341.575,2.07591e-05 C341.575,0.782798,340.94,1.41736,340.157,1.41736 C339.375,1.41736,338.74,0.782798,338.74,2.07591e-05 C338.74,-0.782756,339.375,-1.41732,340.157,-1.41732 C340.94,-1.41732,341.575,-0.782756,341.575,2.07591e-05 Z"/><path fill="#5e5e5e" stroke="#fff" stroke-width="5.66929" d="M341.575,28.3464 C341.575,29.1292,340.94,29.7638,340.157,29.7638 C339.375,29.7638,338.74,29.1292,338.74,28.3464 C338.74,27.5637,339.375,26.9291,340.157,26.9291 C340.94,26.9291,341.575,27.5637,341.575,28.3464 Z"/><path fill="#5e5e5e" stroke="#fff" stroke-width="5.66929" d="M369.921,28.3464 C369.921,29.1292,369.287,29.7638,368.504,29.7638 C367.721,29.7638,367.087,29.1292,367.087,28.3464 C367.087,27.5637,367.721,26.9291,368.504,26.9291 C369.287,26.9291,369.921,27.5637,369.921,28.3464 Z"/><path fill="#5e5e5e" stroke="#fff" stroke-width="5.66929" d="M369.921,2.07591e-05 C369.921,0.782798,369.287,1.41736,368.504,1.41736 C367.721,1.41736,367.087,0.782798,367.087,2.07591e-05 C367.087,-0.782756,367.721,-1.41732,368.504,-1.41732 C369.287,-1.41732,369.921,-0.782756,369.921,2.07591e-05 Z"/><path fill="#5e5e5e" stroke="#fff" stroke-width="5.66929" d="M1.41732,566.929 C1.41732,567.712,0.782766,568.346,1.42109e-14,568.346 C-0.782766,568.346,-1.41732,567.712,-1.41732,566.929 C-1.41732,566.146,-0.782766,565.512,1.42109e-14,565.512 C0.782766,565.512,1.41732,566.146,1.41732,566.929 Z"/><path fill="#5e5e5e" stroke="#fff" stroke-width="5.66929" d="M1.41732,595.276 C1.41732,596.058,0.782766,596.693,1.42109e-14,596.693 C-0.782766,596.693,-1.41732,596.058,-1.41732,595.276 C-1.41732,594.493,-0.782766,593.858,1.42109e-14,593.858 C0.782766,593.858,1.41732,594.493,1.41732,595.276 Z"/><path fill="#5e5e5e" stroke="#fff" stroke-width="5.66929" d="M29.7638,595.276 C29.7638,596.058,29.1292,596.693,28.3465,596.693 C27.5637,596.693,26.9291,596.058,26.9291,595.276 C26.9291,594.493,27.5637,593.858,28.3465,593.858 C29.1292,593.858,29.7638,594.493,29.7638,595.276 Z"/><path fill="#5e5e5e" stroke="#fff" stroke-width="5.66929" d="M29.7638,566.929 C29.7638,567.712,29.1292,568.346,28.3465,568.346 C27.5637,568.346,26.9291,567.712,26.9291,566.929 C26.9291,566.146,27.5637,565.512,28.3465,565.512 C29.1292,565.512,29.7638,566.146,29.7638,566.929 Z"/><path fill="#5e5e5e" stroke="#fff" stroke-width="5.66929" d="M341.575,566.929 C341.575,567.712,340.94,568.346,340.157,568.346 C339.375,568.346,338.74,567.712,338.74,566.929 C338.74,566.146,339.375,565.512,340.157,565.512 C340.94,565.512,341.575,566.146,341.575,566.929 Z"/><path fill="#5e5e5e" stroke="#fff" stroke-width="5.66929" d="M341.575,595.276 C341.575,596.058,340.94,596.693,340.157,596.693 C339.375,596.693,338.74,596.058,338.74,595.276 C338.74,594.493,339.375,593.858,340.157,593.858 C340.94,593.858,341.575,594.493,341.575,595.276 Z"/><path fill="#5e5e5e" stroke="#fff" stroke-width="5.66929" d="M369.921,595.276 C369.921,596.058,369.287,596.693,368.504,596.693 C367.721,596.693,367.087,596.058,367.087,595.276 C367.087,594.493,367.721,593.858,368.504,593.858 C369.287,593.858,369.921,594.493,369.921,595.276 Z"/><path fill="#5e5e5e" stroke="#fff" stroke-width="5.66929" d="M369.921,566.929 C369.921,567.712,369.287,568.346,368.504,568.346 C367.721,568.346,367.087,567.712,367.087,566.929 C367.087,566.146,367.721,565.512,368.504,565.512 C369.287,565.512,369.921,566.146,369.921,566.929 Z"/><path fill="#5e5e5e" stroke="#fff" stroke-width="5.66929" d="M1.41732,2.07591e-05 C1.41732,0.782798,0.782766,1.41736,1.42109e-14,1.41736 C-0.782766,1.41736,-1.41732,0.782798,-1.41732,2.07591e-05 C-1.41732,-0.782756,-0.782766,-1.41732,1.42109e-14,-1.41732 C0.782766,-1.41732,1.41732,-0.782756,1.41732,2.07591e-05 Z"/><path fill="#5e5e5e" stroke="#fff" stroke-width="5.66929" d="M1.41732,28.3464 C1.41732,29.1292,0.782766,29.7638,1.42109e-14,29.7638 C-0.782766,29.7638,-1.41732,29.1292,-1.41732,28.3464 C-1.41732,27.5637,-0.782766,26.9291,1.42109e-14,26.9291 C0.782766,26.9291,1.41732,27.5637,1.41732,28.3464 Z"/><path fill="#5e5e5e" stroke="#fff" stroke-width="5.66929" d="M29.7638,28.3464 C29.7638,29.1292,29.1292,29.7638,28.3465,29.7638 C27.5637,29.7638,26.9291,29.1292,26.9291,28.3464 C26.9291,27.5637,27.5637,26.9291,28.3465,26.9291 C29.1292,26.9291,29.7638,27.5637,29.7638,28.3464 Z"/><path fill="#5e5e5e" stroke="#fff" stroke-width="5.66929" d="M29.7638,2.07591e-05 C29.7638,0.782798,29.1292,1.41736,28.3465,1.41736 C27.5637,1.41736,26.9291,0.782798,26.9291,2.07591e-05 C26.9291,-0.782756,27.5637,-1.41732,28.3465,-1.41732 C29.1292,-1.41732,29.7638,-0.782756,29.7638,2.07591e-05 Z"/><g><path fill="#ee5d40" fill-opacity="0.25" d="M219.092,28.5819 L263.871,28.6571 L255.897,34.428 L285.792,77.3984 L219.248,76.8565"/><path fill="#085bdd" fill-opacity="0.24" d="M219.248,114.717 L248.69,114.717 L242.409,107.054 L273.182,85.177 L290.98,85.4895 L321.374,127.705 L219.248,127.705"/><path fill="#5aeb33" fill-opacity="0.25" d="M281.307,71.6287 L260.37,41.9968 L260.213,41.9968 L336.212,41.6352 L293.046,71.6626 L292.679,71.9238"/><path fill="#ffee3b" fill-opacity="0.28" d="M221.387,76.8565 L284.263,77.1201 L242.348,107.366 L247.504,115.309 L221.387,115.368 Z"/><path fill="none" stroke="#000" stroke-width="0.425197" d="M219.248,107.312 L242.91,107.312"/><path fill="none" stroke="#000" stroke-width="0.425197" d="M219.092,34.4339 L256.14,34.3424"/><path fill="none" stroke="#000" stroke-width="0.425197" d="M218.935,28.5819 L265.046,28.5991"/><path fill="none" stroke="#000" stroke-width="0.425197" d="M219.248,76.8565 L285.792,77.0357"/><path fill="none" stroke="#000" stroke-width="0.425197" d="M248.69,115.368 L219.248,115.368"/><path fill="none" stroke="#000" stroke-width="0.425197" d="M321.374,128.355 L219.248,128.355"/><path fill="none" stroke="#000100" stroke-width="0.283465" d="M260.682,41.9968 L336.011,41.5766"/><path fill="#ffee2f" stroke="#000100" stroke-width="0.283465" d="M247.666,115.737 L241.931,107.545 L284.936,77.4326 L290.672,85.6241 Z"/><path fill="#ee5d40" stroke="#000100" stroke-width="0.283465" d="M254.823,34.4271 L263.015,28.6913 L293.128,71.6968 L284.936,77.4326 Z"/><path fill="#085bde" stroke="#000100" stroke-width="0.283465" d="M290.672,85.6241 L298.863,79.8883 L328.976,122.894 L320.785,128.63 Z"/><path fill="#8bf278" stroke="#000100" stroke-width="0.283465" d="M298.863,79.8883 L293.128,71.6968 L336.133,41.584 L341.869,49.7756 Z"/><path fill="#ee5d40" stroke="#000" stroke-width="0.283465" d="M219.092,28.5819 L196.932,28.5819 L196.932,34.4306 L219.092,34.4306 Z"/><path fill="#ee5d40" stroke="#000" stroke-width="0.283465" d="M219.248,76.8565 L196.932,76.8565 L196.932,34.4306 L219.248,34.4306 Z"/><path fill="#ffee3b" stroke="#000" stroke-width="0.283465" d="M219.248,107.312 L196.932,107.312 L196.932,76.8565 L219.248,76.8565 Z"/><path fill="#ffee3b" stroke="#000" stroke-width="0.283465" d="M219.248,115.368 L196.932,115.368 L196.932,107.312 L219.248,107.312 Z"/><path fill="#085bde" stroke="#000100" stroke-width="0.283465" d="M219.248,128.355 L196.932,128.355 L196.932,115.368 L219.248,115.368 Z"/><path fill="#fffffe" stroke="#000100" d="M292.809,78.4085 C292.809,78.9078,292.404,79.3126,291.905,79.3126 C291.405,79.3126,291.001,78.9078,291.001,78.4085 C291.001,77.9091,291.405,77.5044,291.905,77.5044 C292.404,77.5044,292.809,77.9091,292.809,78.4085 Z"/><g><path fill="none" intaglio:arrow-start="7" stroke="#000100" stroke-width="0.283465" d="M298.455,20.9385 C330.091,24.556,352.805,53.135,349.188,84.7715 C345.57,116.408,316.991,139.122,285.355,135.504 C253.718,131.887,231.004,103.308,234.622,71.6714 C236.69,53.5796,247.184,37.5284,262.927,28.3763 M299.148,21.022 L299.148,21.022 C299.56,21.0742,299.972,21.1308,300.383,21.192"/><path fill="none" intaglio:omit="yes" stroke="#000100" stroke-width="0.283465" d="M304.182,25.2521 C302.405,23.6461,300.439,22.2703,298.455,20.9385 C300.815,20.1096,303.206,19.3429,305.664,18.8546"/></g></g><text fill="#000100" font-family="Courier New" text-decoration="underline" font-size="8" transform="matrix(1,0,0,1,28.772,170.949)" xml:space="preserve"><tspan>a. data organisation</tspan><tspan text-decoration="none">:</tspan><tspan x="0" y="10" text-decoration="none">use polar coords</tspan><tspan x="0" y="20" text-decoration="none">- list vertices as a function</tspan><tspan x="0" y="30" text-decoration="none">of omega (ccw)</tspan><tspan x="0" y="40" text-decoration="none">- list edges as pairs of</tspan><tspan x="0" y="50" text-decoration="none">vertices (counterclockwise)</tspan><tspan x="0" y="60" text-decoration="none">- alf is specific angle made</tspan><tspan x="0" y="70" text-decoration="none">by rect axis ant vert v (same</tspan><tspan x="0" y="80" text-decoration="none">for all verts)</tspan><tspan x="0" y="100" text-decoration="none">. alf=atn((thickness*0.5)/</tspan><tspan x="0" y="110" text-decoration="none">length)</tspan><tspan x="0" y="120" text-decoration="none">. use length = 1</tspan><tspan x="0" y="130" text-decoration="none">. vtx = omg +[alf, 90,</tspan><tspan x="0" y="140" text-decoration="none">90+2*alf, ...]</tspan><tspan x="0" y="150" text-decoration="none">. edg = [[vtx[i],vtx[i+1]...]</tspan><tspan x="0" y="180">b. back-facing-edge culling</tspan><tspan text-decoration="none">:</tspan><tspan x="0" y="190" text-decoration="none">remove edges whith normals</tspan><tspan x="0" y="200" text-decoration="none">pointing rightside of Y axis</tspan><tspan x="0" y="210" text-decoration="none">(i.e.positive or null x)</tspan><tspan x="0" y="240">c. vertex scanning</tspan><tspan x="0" y="250" text-decoration="none">scan along Y axis:</tspan><tspan x="0" y="260" text-decoration="none">- sort verts along Y axis, if</tspan><tspan x="0" y="270" text-decoration="none">Y equal, sort along X</tspan><tspan x="0" y="280" text-decoration="none">(closest first)</tspan><tspan x="0" y="290" text-decoration="none">- loop every 2 vtx (v1/v2)</tspan><tspan x="0" y="300" text-decoration="none">    if v1 and v2 belong to</tspan><tspan x="0" y="310" text-decoration="none">same edge: project v1,v2; go</tspan><tspan x="0" y="320" text-decoration="none">on to v2/v3</tspan><tspan x="0" y="330" text-decoration="none">    else find on which side</tspan><tspan x="0" y="340" text-decoration="none">of the edge_of_v1 is v2</tspan><tspan x="28" y="350" text-decoration="none">  if v2 is behind: skip</tspan><tspan x="0" y="360" text-decoration="none">v2; go on to v1/v3</tspan><tspan x="28" y="370" text-decoration="none">  if v2 is in fron</tspan><tspan text-decoration="none">t or</tspan><tspan x="0" y="380" text-decoration="none">coincident: project v2; go on</tspan><tspan x="0" y="390" text-decoration="none">to v2/v3</tspan></text><text fill="#000100" font-family="Courier New" font-weight="bold" text-decoration="underline" font-size="8" transform="matrix(1.5,0,0,1.5,110.231,37.4307)" xml:space="preserve"><tspan>telepantin</tspan></text><text fill="#000100" font-family="Courier New" font-weight="bold" text-decoration="underline" font-size="8" transform="matrix(1.5,0,0,1.5,177.616,161.181)" xml:space="preserve"><tspan>a</tspan></text><path fill="none" stroke="#000100" stroke-opacity="0.92" stroke-width="0.283465" d="M245.399,209.002 C246.522,208.215,248.07,208.488,248.857,209.611 C249.643,210.735,249.37,212.283,248.247,213.069 C247.124,213.856,245.576,213.583,244.789,212.459 C244.003,211.336,244.276,209.788,245.399,209.002 Z"/><path fill="none" stroke="#000100" stroke-opacity="0.92" stroke-width="0.283465" d="M251.877,217.347 C253,216.56,254.549,216.833,255.335,217.956 C256.122,219.08,255.849,220.628,254.725,221.414 C253.602,222.201,252.054,221.928,251.267,220.805 C250.481,219.681,250.754,218.133,251.877,217.347 Z"/><path fill="none" stroke="#000100" stroke-opacity="0.92" stroke-width="0.283465" d="M259.617,211.757 C260.741,210.971,262.289,211.244,263.075,212.367 C263.862,213.49,263.589,215.038,262.466,215.825 C261.342,216.611,259.794,216.338,259.008,215.215 C258.221,214.092,258.494,212.544,259.617,211.757 Z"/><path fill="none" stroke="#000100" stroke-opacity="0.92" stroke-width="0.283465" d="M253.889,203.781 C255.012,202.995,256.56,203.268,257.347,204.391 C258.133,205.514,257.86,207.062,256.737,207.849 C255.614,208.635,254.066,208.362,253.279,207.239 C252.493,206.116,252.766,204.568,253.889,203.781 Z"/><path fill="none" stroke="#000100" stroke-opacity="0.92" stroke-width="0.283465" d="M300.379,174.044 C301.165,175.167,300.892,176.715,299.769,177.501 C298.646,178.288,297.098,178.015,296.311,176.892 C295.525,175.768,295.798,174.22,296.921,173.434 C298.044,172.647,299.592,172.92,300.379,174.044 Z"/><g><path fill="none" stroke="#000100" stroke-opacity="0.92" stroke-width="0.283465" d="M206.764,239.52 C207.551,240.644,207.278,242.192,206.154,242.978 C205.031,243.765,203.483,243.492,202.696,242.369 C201.91,241.245,202.183,239.697,203.306,238.911 C204.429,238.124,205.978,238.397,206.764,239.52 Z"/><path fill="none" stroke="#000100" stroke-opacity="0.92" stroke-width="0.283465" d="M212.545,247.776 C213.331,248.899,213.058,250.447,211.935,251.234 C210.812,252.02,209.264,251.747,208.477,250.624 C207.691,249.501,207.964,247.953,209.087,247.166 C210.21,246.38,211.758,246.653,212.545,247.776 Z"/></g><g><path fill="none" stroke="#000100" stroke-opacity="0.92" stroke-width="0.283465" d="M216.606,166.227 C217.73,165.44,219.278,165.713,220.064,166.836 C220.851,167.96,220.578,169.508,219.455,170.294 C218.331,171.081,216.783,170.808,215.997,169.684 C215.21,168.561,215.483,167.013,216.606,166.227 Z"/><path fill="none" stroke="#000100" stroke-opacity="0.92" stroke-width="0.283465" d="M224.862,160.446 C225.985,159.66,227.533,159.933,228.32,161.056 C229.106,162.179,228.833,163.727,227.71,164.514 C226.587,165.3,225.039,165.027,224.252,163.904 C223.466,162.781,223.739,161.233,224.862,160.446 Z"/></g><path fill="none" stroke="#000100" stroke-opacity="0.92" stroke-width="0.283465" d="M281.458,260.154 C282.582,259.368,284.13,259.641,284.916,260.764 C285.703,261.887,285.43,263.435,284.306,264.222 C283.183,265.008,281.635,264.735,280.849,263.612 C280.062,262.489,280.335,260.941,281.458,260.154 Z"/><path fill="none" stroke="#000100" stroke-opacity="0.92" stroke-width="0.283465" d="M305.561,181.856 C306.348,182.979,306.075,184.527,304.952,185.314 C303.828,186.1,302.28,185.827,301.494,184.704 C300.707,183.581,300.98,182.033,302.104,181.246 C303.227,180.46,304.775,180.733,305.561,181.856 Z"/><path fill="none" stroke="#000100" stroke-opacity="0.92" stroke-width="0.283465" d="M289.583,254.529 C290.707,253.743,292.255,254.016,293.041,255.139 C293.828,256.262,293.555,257.81,292.431,258.597 C291.308,259.383,289.76,259.11,288.974,257.987 C288.187,256.864,288.46,255.316,289.583,254.529 Z"/><path fill="none" stroke="#000100" stroke-width="0.283465" d="M259.961,208.541 C262.176,211.704,261.407,216.064,258.244,218.279 C255.081,220.494,250.721,219.725,248.506,216.562 C246.291,213.399,247.059,209.039,250.223,206.824 C253.386,204.609,257.746,205.378,259.961,208.541 Z"/><path fill="none" stroke="#000100" stroke-width="0.283465" d="M301.501,179.264 C319.765,205.348,313.426,241.299,287.342,259.563 C261.258,277.827,225.307,271.488,207.042,245.404 C188.778,219.32,195.117,183.369,221.201,165.105 C247.285,146.84,283.237,153.18,301.501,179.264 Z"/><path fill="none" stroke="#000100" stroke-width="0.283465" d="M254.272,212.334 L225.661,162.48"/><path fill="none" stroke="#000100" stroke-width="0.283465" d="M254.272,212.334 L304.126,183.723"/><path fill="none" stroke="#000100" stroke-width="0.283465" d="M254.272,212.334 L311.935,164.1"/><path fill="none" stroke="#000100" stroke-width="0.283465" d="M254.272,212.334 L217.406,168.26"/><path fill="none" stroke="#000100" stroke-width="0.283465" d="M254.272,212.334 L255.461,205.588"/><path fill="none" stroke="#000100" stroke-width="0.283465" d="M254.272,212.334 L247.27,211.324"/><path fill="none" stroke="#000100" stroke-width="0.283465" d="M254.272,212.334 L253.005,219.515"/><path fill="none" stroke="#000100" stroke-width="0.283465" d="M254.272,212.334 L261.197,213.779"/><path fill="none" stroke="#000100" stroke-width="0.283465" d="M254.272,212.334 L204.418,240.945"/><path fill="none" stroke="#000100" stroke-width="0.283465" d="M254.272,212.334 L210.198,249.2"/><path fill="none" stroke="#000100" stroke-width="0.283465" d="M254.272,212.334 L282.882,262.188"/><path fill="none" stroke="#000100" stroke-width="0.283465" d="M254.272,212.334 L291.138,256.407"/><path fill="none" stroke="#000100" stroke-width="0.283465" d="M254.272,212.334 L316.014,169.102"/><path fill="none" stroke="#000100" stroke-width="0.283465" d="M311.935,164.1 C313.313,165.748,314.62,167.454,315.853,169.214"/><g><path fill="none" intaglio:arrow-end="1" stroke="#000100" stroke-width="1.41732" d="M254.272,212.334 L333,212.334"/><path fill="none" intaglio:omit="yes" stroke="#000100" stroke-width="1.41732" d="M327.478,210.125 L333,212.334 L327.478,214.542"/></g><g><path fill="none" intaglio:arrow-end="1" stroke="#000100" stroke-width="1.41732" d="M254.272,212.334 L254.272,147.49"/><path fill="none" intaglio:omit="yes" stroke="#000100" stroke-width="1.41732" d="M252.063,153.012 L254.272,147.49 L256.48,153.012"/></g><g><path fill="none" intaglio:arrow-start="7" stroke="#000100" stroke-width="0.283465" d="M309.327,173.944 C316.343,185.743,319.992,199.239,319.877,212.966"/><path fill="none" intaglio:omit="yes" stroke="#000100" stroke-width="0.283465" d="M309.465,181.135 C309.551,178.738,309.503,176.336,309.327,173.944 C311.429,175.292,313.455,176.756,315.399,178.323"/></g><text fill="#000100" font-family="Courier New" font-size="8" transform="matrix(1,0,0,1,316.808,163.818)" xml:space="preserve"><tspan>alpha</tspan></text><text fill="#000100" font-family="Courier New" font-size="8" transform="matrix(1,0,0,1,317.017,176.224)" xml:space="preserve"><tspan>omega</tspan></text><g><text fill="#000100" font-family="Courier New" font-weight="bold" text-decoration="underline" font-size="8" transform="matrix(1.5,0,0,1.5,178.26,298.796)" xml:space="preserve"><tspan>b</tspan></text><path fill="none" stroke="#000100" stroke-opacity="0.92" stroke-width="0.283465" d="M260.058,369.88 C261.181,369.094,262.729,369.367,263.516,370.49 C264.302,371.613,264.029,373.161,262.906,373.948 C261.783,374.734,260.235,374.461,259.448,373.338 C258.662,372.215,258.935,370.667,260.058,369.88 Z"/><path fill="none" stroke="#000100" stroke-opacity="0.92" stroke-width="0.283465" d="M266.537,378.225 C267.66,377.439,269.208,377.712,269.994,378.835 C270.781,379.958,270.508,381.506,269.385,382.293 C268.261,383.079,266.713,382.806,265.927,381.683 C265.14,380.56,265.413,379.012,266.537,378.225 Z"/><path fill="none" stroke="#000100" stroke-opacity="0.92" stroke-width="0.283465" d="M274.277,372.636 C275.4,371.849,276.948,372.122,277.735,373.245 C278.521,374.369,278.248,375.917,277.125,376.703 C276.002,377.49,274.454,377.217,273.667,376.094 C272.881,374.97,273.154,373.422,274.277,372.636 Z"/><path fill="none" stroke="#000100" stroke-opacity="0.92" stroke-width="0.283465" d="M268.548,364.659 C269.671,363.873,271.219,364.146,272.006,365.269 C272.792,366.392,272.519,367.941,271.396,368.727 C270.273,369.514,268.725,369.241,267.938,368.117 C267.152,366.994,267.425,365.446,268.548,364.659 Z"/><path fill="none" stroke="#000100" stroke-opacity="0.92" stroke-width="0.283465" d="M315.038,334.922 C315.825,336.045,315.552,337.593,314.429,338.38 C313.305,339.166,311.757,338.893,310.971,337.77 C310.184,336.647,310.457,335.099,311.58,334.312 C312.704,333.526,314.252,333.799,315.038,334.922 Z"/><g><path fill="none" stroke="#000100" stroke-opacity="0.92" stroke-width="0.283465" d="M221.423,400.399 C222.21,401.522,221.937,403.07,220.814,403.857 C219.69,404.643,218.142,404.37,217.356,403.247 C216.569,402.124,216.842,400.576,217.966,399.789 C219.089,399.003,220.637,399.276,221.423,400.399 Z"/><path fill="none" stroke="#000100" stroke-opacity="0.92" stroke-width="0.283465" d="M227.204,408.654 C227.99,409.778,227.717,411.326,226.594,412.112 C225.471,412.899,223.923,412.626,223.136,411.503 C222.35,410.379,222.623,408.831,223.746,408.045 C224.869,407.258,226.417,407.531,227.204,408.654 Z"/></g><g><path fill="none" stroke="#000100" stroke-opacity="0.92" stroke-width="0.283465" d="M231.266,327.105 C232.389,326.319,233.937,326.592,234.724,327.715 C235.51,328.838,235.237,330.386,234.114,331.173 C232.991,331.959,231.443,331.686,230.656,330.563 C229.87,329.44,230.143,327.892,231.266,327.105 Z"/><path fill="none" stroke="#000100" stroke-opacity="0.92" stroke-width="0.283465" d="M239.521,321.325 C240.645,320.538,242.193,320.811,242.979,321.934 C243.766,323.057,243.493,324.606,242.369,325.392 C241.246,326.179,239.698,325.906,238.912,324.782 C238.125,323.659,238.398,322.111,239.521,321.325 Z"/></g><path fill="none" stroke="#000100" stroke-opacity="0.92" stroke-width="0.283465" d="M296.118,421.032 C297.241,420.246,298.789,420.519,299.576,421.642 C300.362,422.765,300.089,424.314,298.966,425.1 C297.843,425.886,296.295,425.614,295.508,424.49 C294.722,423.367,294.995,421.819,296.118,421.032 Z"/><path fill="none" stroke="#000100" stroke-opacity="0.92" stroke-width="0.283465" d="M320.221,342.734 C321.007,343.858,320.734,345.406,319.611,346.192 C318.488,346.979,316.94,346.706,316.153,345.583 C315.367,344.459,315.64,342.911,316.763,342.125 C317.886,341.338,319.434,341.611,320.221,342.734 Z"/><path fill="none" stroke="#000100" stroke-opacity="0.92" stroke-width="0.283465" d="M304.243,415.407 C305.366,414.621,306.914,414.894,307.701,416.017 C308.487,417.14,308.214,418.689,307.091,419.475 C305.968,420.261,304.42,419.989,303.633,418.865 C302.847,417.742,303.12,416.194,304.243,415.407 Z"/><path fill="none" stroke="#000100" stroke-width="0.283465" d="M195.928,303.994 L196.241,438.056"/><g><path fill="none" intaglio:arrow-end="1" stroke="#ff3907" stroke-width="0.283465" d="M316.16,340.142 L321.268,336.766"/><path fill="none" intaglio:omit="yes" stroke="#ff3907" stroke-width="0.283465" d="M316.938,337.66 L321.268,336.766 L318.749,340.399"/></g><g><path fill="none" intaglio:arrow-end="1" stroke="#63cf13" stroke-width="0.283465" d="M290.336,351.691 L285.488,344.306"/><path fill="none" intaglio:omit="yes" stroke="#63cf13" stroke-width="0.283465" d="M286.368,348.638 L285.488,344.306 L289.113,346.836"/></g><g><path fill="none" intaglio:arrow-end="1" stroke="#ff3907" stroke-width="0.283465" d="M256.198,347.084 L266.766,340.474"/><path fill="none" intaglio:omit="yes" stroke="#ff3907" stroke-width="0.283465" d="M262.416,341.259 L266.766,340.474 L264.157,344.042"/></g><g><path fill="none" intaglio:arrow-end="1" stroke="#00d013" stroke-width="0.283465" d="M236.193,326.249 L231.123,318.056"/><path fill="none" intaglio:omit="yes" stroke="#00d013" stroke-width="0.283465" d="M231.887,322.41 L231.123,318.056 L234.679,320.682"/></g><g><path fill="none" intaglio:arrow-end="1" stroke="#00d013" stroke-width="0.283465" d="M246.523,350.413 L239.238,355.869"/><path fill="none" intaglio:omit="yes" stroke="#00d013" stroke-width="0.283465" d="M243.507,354.722 L239.238,355.869 L241.539,352.094"/></g><g><path fill="none" intaglio:arrow-end="1" stroke="#00d013" stroke-width="0.283465" d="M242.803,385.575 L239.238,381.032"/><path fill="none" intaglio:omit="yes" stroke="#00d013" stroke-width="0.283465" d="M240.48,385.274 L239.238,381.032 L243.063,383.247"/></g><g><path fill="none" intaglio:arrow-end="1" stroke="#00d013" stroke-width="0.283465" d="M221.967,405.951 L211.271,412.561"/><path fill="none" intaglio:omit="yes" stroke="#00d013" stroke-width="0.283465" d="M215.626,411.8 L211.271,412.561 L213.9,409.007"/></g><g><path fill="none" intaglio:arrow-end="1" stroke="#63cf13" stroke-width="0.283465" d="M281.685,399.965 L271.431,406.576"/><path fill="none" intaglio:omit="yes" stroke="#63cf13" stroke-width="0.283465" d="M275.77,405.732 L271.431,406.576 L273.991,402.972"/></g><g><path fill="none" intaglio:arrow-end="1" stroke="#ff3907" stroke-width="0.283465" d="M301.67,420.176 L308.748,430.872"/><path fill="none" intaglio:omit="yes" stroke="#ff3907" stroke-width="0.283465" d="M307.852,426.543 L308.748,430.872 L305.114,428.355"/></g><g><path fill="none" intaglio:arrow-end="1" stroke="#ff3907" stroke-width="0.283465" d="M290.032,395.435 L297.823,390.37"/><path fill="none" intaglio:omit="yes" stroke="#ff3907" stroke-width="0.283465" d="M293.487,391.23 L297.823,390.37 L295.277,393.983"/></g><g><path fill="none" intaglio:arrow-end="1" stroke="#ff3907" stroke-width="0.283465" d="M296.476,360.88 L301.67,369.176"/><path fill="none" intaglio:omit="yes" stroke="#ff3907" stroke-width="0.283465" d="M300.883,364.826 L301.67,369.176 L298.1,366.568"/></g><path fill="none" stroke="#ff3907" stroke-width="1.13386" d="M240.32,323.358 L269.972,366.693"/><path fill="none" stroke="#0f0" stroke-width="1.13386" d="M269.972,366.693 L313.004,336.346"/><path fill="none" stroke="#ff3907" stroke-width="1.13386" d="M313.004,336.346 L318.785,344.602"/><path fill="none" stroke="#ff3907" stroke-width="1.13386" d="M318.785,344.602 L275.701,374.669"/><path fill="none" stroke="#ff3907" stroke-width="1.13386" d="M275.701,374.669 L305.797,417.286"/><path fill="none" stroke="#ff3907" stroke-width="1.13386" d="M305.797,417.286 L297.542,423.066"/><path fill="none" stroke="#0f0" stroke-width="1.13386" d="M297.542,423.066 L267.961,380.259"/><path fill="none" stroke="#ff3907" stroke-width="1.13386" d="M267.961,380.259 L224.858,410.078"/><path fill="none" stroke="#0f0" stroke-width="1.13386" d="M224.858,410.078 L219.077,401.823"/><path fill="none" stroke="#0f0" stroke-width="1.13386" d="M219.077,401.823 L261.482,371.914"/><path fill="none" stroke="#0f0" stroke-width="1.13386" d="M261.482,371.914 L232.065,329.139"/><path fill="none" stroke="#0f0" stroke-width="1.13386" d="M232.065,329.139 L240.32,323.358"/><g><path fill="none" intaglio:arrow-end="1" stroke="#ff3907" stroke-width="0.283465" d="M246.409,395.169 L251.738,402.082"/><path fill="none" intaglio:omit="yes" stroke="#ff3907" stroke-width="0.283465" d="M250.532,397.829 L251.738,402.082 L247.932,399.833"/></g><g><path fill="none" intaglio:arrow-start="7" stroke="#000100" stroke-width="0.305189" stroke-dasharray="3.66057" d="M196.241,410.141 L225.17,410.078"/><path fill="none" intaglio:omit="yes" stroke="#000100" stroke-width="0.305189" d="M202.859,413.432 L196.241,410.141 L202.844,406.822"/></g><g><path fill="none" intaglio:arrow-start="7" stroke="#000100" stroke-width="0.3066" stroke-dasharray="3.6775" d="M196.241,402.112 L219.39,401.823"/><path fill="none" intaglio:omit="yes" stroke="#000100" stroke-width="0.3066" d="M202.895,405.336 L196.241,402.112 L202.812,398.723"/></g><g><path fill="none" intaglio:arrow-end="7" stroke="#000100" stroke-width="0.289979" stroke-dasharray="3.47814" d="M261.795,371.895 L196.241,371.626"/><path fill="none" intaglio:omit="yes" stroke="#000100" stroke-width="0.289979" d="M202.807,374.943 L196.241,371.626 L202.834,368.363"/></g><g><path fill="none" intaglio:arrow-end="7" stroke="#000100" stroke-width="0.308019" stroke-dasharray="3.69452" d="M232.377,329.139 L196.241,329.199"/><path fill="none" intaglio:omit="yes" stroke="#000100" stroke-width="0.308019" d="M202.863,332.496 L196.241,329.199 L202.852,325.88"/></g><g><path fill="none" intaglio:arrow-end="7" stroke="#000100" stroke-width="0.232136" stroke-dasharray="2.78434" d="M240.32,323.358 L195.928,323.354"/><path fill="none" intaglio:omit="yes" stroke="#000100" stroke-width="0.232136" d="M202.392,326.587 L195.928,323.354 L202.393,320.123"/></g><g><path fill="none" intaglio:arrow-end="7" stroke="#000100" stroke-width="0.304575" stroke-dasharray="3.65321" d="M297.854,423.062 L196.241,423.119"/><path fill="none" intaglio:omit="yes" stroke="#000100" stroke-width="0.304575" d="M202.852,426.42 L196.241,423.119 L202.848,419.81"/></g><text fill="#000100" font-family="Courier New" font-size="8" transform="matrix(1,0,0,1,304.978,332.785)" xml:space="preserve"><tspan>a</tspan></text><text fill="#000100" font-family="Courier New" font-size="8" transform="matrix(1,0,0,1,267.918,360.286)" xml:space="preserve"><tspan>b</tspan></text><text fill="#000100" font-family="Courier New" font-size="8" transform="matrix(1,0,0,1,280.611,377.923)" xml:space="preserve"><tspan>K</tspan></text><text fill="#000100" font-family="Courier New" font-size="8" transform="matrix(1,0,0,1,318.942,353.382)" xml:space="preserve"><tspan>l</tspan></text><text fill="#000100" font-family="Courier New" font-size="8" transform="matrix(1,0,0,1,244.727,321.418)" xml:space="preserve"><tspan>c</tspan></text><text fill="#000100" font-family="Courier New" font-size="8" transform="matrix(1,0,0,1,254.065,373.184)" xml:space="preserve"><tspan>e</tspan></text><text fill="#000100" font-family="Courier New" font-size="8" transform="matrix(1,0,0,1,265.14,390.026)" xml:space="preserve"><tspan>h</tspan></text><text fill="#000100" font-family="Courier New" font-size="8" transform="matrix(1,0,0,1,214.282,395.825)" xml:space="preserve"><tspan>f</tspan></text><text fill="#000100" font-family="Courier New" font-size="8" transform="matrix(1,0,0,1,290.152,423.709)" xml:space="preserve"><tspan>i</tspan></text><text fill="#000100" font-family="Courier New" font-size="8" transform="matrix(1,0,0,1,307.518,413.508)" xml:space="preserve"><tspan>j</tspan></text><text fill="#000100" font-family="Courier New" font-size="8" transform="matrix(1,0,0,1,228.842,415.18)" xml:space="preserve"><tspan>g</tspan></text><text fill="#000100" font-family="Courier New" font-size="8" transform="matrix(1,0,0,1,223.418,336.285)" xml:space="preserve"><tspan>d</tspan></text><g><path fill="none" intaglio:arrow-end="1" stroke="#000100" stroke-width="1.41732" d="M291.446,312.306 L196.928,312.306"/><path fill="none" intaglio:omit="yes" stroke="#000100" stroke-width="1.41732" d="M202.45,314.515 L196.928,312.306 L202.45,310.097"/></g><g><g><path fill="none" intaglio:arrow-end="1" stroke="#000100" stroke-width="1.47002" d="M291.446,312.067 L291.446,288.048"/><path fill="none" intaglio:omit="yes" stroke="#000100" stroke-width="1.47002" d="M289.211,293.636 L291.446,288.048 L293.681,293.636"/></g><g><path fill="none" intaglio:arrow-end="1" stroke="#000100" stroke-width="1.47002" d="M291.446,312.067 L314.992,312.067"/><path fill="none" intaglio:omit="yes" stroke="#000100" stroke-width="1.47002" d="M309.404,309.832 L314.992,312.067 L309.404,314.302"/></g><text fill="#000100" font-family="Courier" font-size="9" transform="matrix(0.918764,0,0,0.918764,288.842,322.183)" xml:space="preserve"><tspan>O</tspan></text><text fill="#000100" font-family="Courier" font-size="9" transform="matrix(0.918764,0,0,0.918764,288.842,284.485)" xml:space="preserve"><tspan>Y</tspan></text><text fill="#000100" font-family="Courier" font-size="9" transform="matrix(0.918764,0,0,0.918764,318.701,314.342)" xml:space="preserve"><tspan>X</tspan></text><g><path fill="none" intaglio:arrow-end="1" stroke="#63cf13" stroke-width="0.416699" d="M291.446,311.369 L284.32,300.514"/><path fill="none" intaglio:omit="yes" stroke="#63cf13" stroke-width="0.416699" d="M285.235,305.021 L284.32,300.514 L288.091,303.146"/></g><g><path fill="none" intaglio:arrow-end="1" stroke="#ff3907" stroke-width="0.416699" d="M291.446,312.067 L306.981,302.35"/><path fill="none" intaglio:omit="yes" stroke="#ff3907" stroke-width="0.416699" d="M302.454,303.166 L306.981,302.35 L304.266,306.063"/></g><g><path fill="none" intaglio:arrow-end="1" stroke="#63cf13" stroke-width="0.416699" d="M291.446,311.719 L278.431,321.465"/><path fill="none" intaglio:omit="yes" stroke="#63cf13" stroke-width="0.416699" d="M282.874,320.272 L278.431,321.465 L280.826,317.538"/></g><g><path fill="none" intaglio:arrow-end="1" stroke="#ff3907" stroke-width="0.416699" d="M291.446,312.067 L299.081,324.263"/><path fill="none" intaglio:omit="yes" stroke="#ff3907" stroke-width="0.416699" d="M298.263,319.736 L299.081,324.263 L295.367,321.549"/></g></g></g><text fill="#000100" font-family="Helvetica" font-size="12" transform="matrix(0.625,0,0,0.625,355.562,504.266)" xml:space="preserve"/><g><path fill="none" intaglio:arrow-end="1" stroke="#000100" stroke-width="1.41732" d="M194.596,456 L194.589,576.091"/><path fill="none" intaglio:omit="yes" stroke="#000100" stroke-width="1.41732" d="M196.798,570.57 L194.589,576.091 L192.38,570.57"/></g><text fill="#000100" font-family="Courier New" font-weight="bold" text-decoration="underline" font-size="8" transform="matrix(1.5,0,0,1.5,177.469,453.097)" xml:space="preserve"><tspan>c</tspan></text><path fill="none" stroke="#63cf13" stroke-width="0.744923" d="M231.172,553.882 L231.172,567.098"/><path fill="none" stroke="#63cf13" stroke-width="1.13386" d="M226.188,553.051 L225.875,545.055"/><path fill="none" stroke="#63cf13" stroke-width="1.13386" d="M228.572,545.472 L228.728,515.16"/><path fill="none" stroke="#63cf13" stroke-width="1.13386" d="M227.009,515.16 L227.009,472.173"/><path fill="none" stroke="#63cf13" stroke-width="1.13386" d="M229,472.112 L229,465.782"/><path fill="none" stroke="#000100" stroke-opacity="0.92" stroke-width="0.283465" d="M281.404,513.66 C282.527,512.874,284.076,513.147,284.862,514.27 C285.649,515.393,285.376,516.941,284.252,517.728 C283.129,518.514,281.581,518.241,280.795,517.118 C280.008,515.995,280.281,514.447,281.404,513.66 Z"/><path fill="none" stroke="#000100" stroke-opacity="0.92" stroke-width="0.283465" d="M287.883,522.005 C289.006,521.219,290.554,521.492,291.341,522.615 C292.127,523.738,291.854,525.286,290.731,526.073 C289.608,526.859,288.059,526.586,287.273,525.463 C286.486,524.34,286.759,522.792,287.883,522.005 Z"/><path fill="none" stroke="#000100" stroke-opacity="0.92" stroke-width="0.283465" d="M295.623,516.416 C296.746,515.629,298.294,515.902,299.081,517.026 C299.867,518.149,299.594,519.697,298.471,520.483 C297.348,521.27,295.8,520.997,295.013,519.874 C294.227,518.75,294.5,517.202,295.623,516.416 Z"/><path fill="none" stroke="#000100" stroke-opacity="0.92" stroke-width="0.283465" d="M289.894,508.44 C291.017,507.653,292.566,507.926,293.352,509.049 C294.139,510.173,293.866,511.721,292.742,512.507 C291.619,513.294,290.071,513.021,289.285,511.897 C288.498,510.774,288.771,509.226,289.894,508.44 Z"/><path fill="none" stroke="#000100" stroke-opacity="0.92" stroke-width="0.283465" d="M336.384,478.702 C337.171,479.825,336.898,481.373,335.775,482.16 C334.651,482.946,333.103,482.673,332.317,481.55 C331.53,480.427,331.803,478.879,332.927,478.092 C334.05,477.306,335.598,477.579,336.384,478.702 Z"/><g><path fill="none" stroke="#000100" stroke-opacity="0.92" stroke-width="0.283465" d="M242.77,544.179 C243.556,545.302,243.283,546.85,242.16,547.637 C241.037,548.423,239.488,548.15,238.702,547.027 C237.915,545.904,238.188,544.356,239.312,543.569 C240.435,542.783,241.983,543.056,242.77,544.179 Z"/><path fill="none" stroke="#000100" stroke-opacity="0.92" stroke-width="0.283465" d="M248.55,552.435 C249.337,553.558,249.064,555.106,247.94,555.892 C246.817,556.679,245.269,556.406,244.483,555.283 C243.696,554.159,243.969,552.611,245.092,551.825 C246.215,551.038,247.764,551.311,248.55,552.435 Z"/></g><g><path fill="none" stroke="#000100" stroke-opacity="0.92" stroke-width="0.283465" d="M252.612,470.885 C253.735,470.099,255.283,470.372,256.07,471.495 C256.856,472.618,256.583,474.166,255.46,474.953 C254.337,475.739,252.789,475.466,252.002,474.343 C251.216,473.22,251.489,471.672,252.612,470.885 Z"/><path fill="none" stroke="#000100" stroke-opacity="0.92" stroke-width="0.283465" d="M260.867,465.105 C261.991,464.318,263.539,464.591,264.325,465.714 C265.112,466.838,264.839,468.386,263.716,469.172 C262.592,469.959,261.044,469.686,260.258,468.563 C259.471,467.439,259.744,465.891,260.867,465.105 Z"/></g><path fill="none" stroke="#000100" stroke-opacity="0.92" stroke-width="0.283465" d="M317.464,564.813 C318.587,564.026,320.135,564.299,320.922,565.422 C321.708,566.546,321.435,568.094,320.312,568.88 C319.189,569.667,317.641,569.394,316.854,568.27 C316.068,567.147,316.341,565.599,317.464,564.813 Z"/><path fill="none" stroke="#000100" stroke-opacity="0.92" stroke-width="0.283465" d="M341.567,486.515 C342.353,487.638,342.08,489.186,340.957,489.972 C339.834,490.759,338.286,490.486,337.499,489.363 C336.713,488.24,336.986,486.691,338.109,485.905 C339.232,485.118,340.78,485.391,341.567,486.515 Z"/><path fill="none" stroke="#000100" stroke-opacity="0.92" stroke-width="0.283465" d="M325.589,559.188 C326.712,558.401,328.26,558.674,329.047,559.797 C329.833,560.921,329.56,562.469,328.437,563.255 C327.314,564.042,325.766,563.769,324.979,562.645 C324.193,561.522,324.466,559.974,325.589,559.188 Z"/><path fill="none" stroke="#ff464c" stroke-width="3" d="M336.397,478.702 C337.183,479.825,336.91,481.373,335.787,482.16 C334.664,482.946,333.116,482.673,332.329,481.55 C331.543,480.427,331.816,478.879,332.939,478.092 C334.062,477.306,335.61,477.579,336.397,478.702 Z"/><path fill="none" stroke="#009c0f" stroke-width="3" d="M242.47,544.179 C243.256,545.302,242.983,546.85,241.86,547.637 C240.737,548.423,239.189,548.15,238.402,547.027 C237.616,545.904,237.889,544.356,239.012,543.569 C240.135,542.783,241.683,543.056,242.47,544.179 Z"/><path fill="none" stroke="#009c0f" stroke-width="3" d="M248.25,552.435 C249.037,553.558,248.764,555.106,247.64,555.892 C246.517,556.679,244.969,556.406,244.183,555.283 C243.396,554.159,243.669,552.611,244.792,551.825 C245.916,551.038,247.464,551.311,248.25,552.435 Z"/><path fill="none" stroke="#009c0f" stroke-width="3" d="M251.999,470.885 C253.123,470.099,254.671,470.372,255.457,471.495 C256.244,472.618,255.971,474.166,254.848,474.953 C253.724,475.739,252.176,475.466,251.39,474.343 C250.603,473.22,250.876,471.672,251.999,470.885 Z"/><path fill="none" stroke="#009c0f" stroke-width="3" d="M260.255,465.105 C261.378,464.318,262.926,464.591,263.713,465.714 C264.499,466.838,264.226,468.386,263.103,469.172 C261.98,469.959,260.432,469.686,259.645,468.563 C258.859,467.439,259.132,465.891,260.255,465.105 Z"/><path fill="none" stroke="#009c0f" stroke-width="3" d="M317.476,564.813 C318.6,564.026,320.148,564.299,320.934,565.422 C321.721,566.546,321.448,568.094,320.325,568.88 C319.201,569.667,317.653,569.394,316.867,568.27 C316.08,567.147,316.353,565.599,317.476,564.813 Z"/><path fill="none" stroke="#000" stroke-width="0.283465" d="M217.443,467.131 L195.284,467.131 L195.284,472.98 L217.443,472.98 Z"/><path fill="none" stroke="#000" stroke-width="0.283465" d="M217.6,515.406 L195.284,515.406 L195.284,472.98 L217.6,472.98 Z"/><path fill="none" stroke="#000" stroke-width="0.283465" d="M217.6,545.862 L195.284,545.862 L195.284,515.406 L217.6,515.406 Z"/><path fill="none" stroke="#000" stroke-width="0.283465" d="M217.6,553.917 L195.284,553.917 L195.284,545.862 L217.6,545.862 Z"/><path fill="none" stroke="#000100" stroke-width="0.283465" d="M217.6,566.905 L195.284,566.905 L195.284,553.917 L217.6,553.917 Z"/><path fill="none" stroke="#009c0f" stroke-width="3" d="M281.417,513.66 C282.54,512.874,284.088,513.147,284.875,514.27 C285.661,515.393,285.388,516.941,284.265,517.728 C283.142,518.514,281.594,518.241,280.807,517.118 C280.021,515.995,280.294,514.447,281.417,513.66 Z"/><path fill="none" stroke="#ff464c" stroke-width="3" d="M287.895,522.005 C289.018,521.219,290.567,521.492,291.353,522.615 C292.14,523.738,291.867,525.286,290.743,526.073 C289.62,526.859,288.072,526.586,287.286,525.463 C286.499,524.34,286.772,522.792,287.895,522.005 Z"/><path fill="none" stroke="#ff464c" stroke-width="3" d="M289.594,508.44 C290.717,507.653,292.266,507.926,293.052,509.049 C293.839,510.173,293.566,511.721,292.442,512.507 C291.319,513.294,289.771,513.021,288.985,511.897 C288.198,510.774,288.471,509.226,289.594,508.44 Z"/><path fill="none" stroke="#0f0" stroke-width="1.13386" d="M291.018,510.473 L334.363,480.126"/><path fill="none" stroke="#0f0" stroke-width="1.13386" d="M319.367,566.905 L288.536,524.098"/><path fill="none" stroke="#0f0" stroke-width="1.13386" d="M246.216,553.859 L240.436,545.603"/><path fill="none" stroke="#0f0" stroke-width="1.13386" d="M240.436,545.603 L282.841,515.694"/><path fill="none" stroke="#0f0" stroke-width="1.13386" d="M282.841,515.694 L253.424,472.919"/><path fill="none" stroke="#0f0" stroke-width="1.13386" d="M253.424,472.919 L261.679,467.138"/><path fill="none" stroke="#000100" stroke-width="0.283465" stroke-dasharray="3.4" d="M213.096,553.906 L246.529,553.859"/><path fill="none" stroke="#000100" stroke-width="0.283465" stroke-dasharray="3.4" d="M212.784,545.808 L240.748,545.603"/><path fill="none" stroke="#000100" stroke-width="0.283465" stroke-dasharray="3.4" d="M283.153,515.675 L208.918,515.406"/><path fill="none" stroke="#000100" stroke-width="0.283465" stroke-dasharray="3.4" d="M253.736,472.919 L208.918,472.974"/><path fill="none" stroke="#000100" stroke-width="0.283465" stroke-dasharray="3.4" d="M261.679,467.137 L217.471,467.131"/><path fill="none" stroke="#000100" stroke-width="0.300141" stroke-dasharray="3.60003" d="M318.9,566.846 L220.421,566.908"/><text fill="#000100" font-family="Helvetica" font-size="12" transform="matrix(0.625,0,0,0.625,266.052,527.102)" xml:space="preserve"/><text fill="#000100" font-family="Courier New" font-size="8" transform="matrix(1,0,0,1,324.809,475.662)" xml:space="preserve"><tspan>a</tspan></text><text fill="#000100" font-family="Courier New" font-size="8" transform="matrix(1,0,0,1,288.249,503.664)" xml:space="preserve"><tspan>b</tspan></text><text fill="#000100" font-family="Courier New" font-size="8" transform="matrix(1,0,0,1,300.942,517.301)" xml:space="preserve"><tspan>K</tspan></text><text fill="#000100" font-family="Courier New" font-size="8" transform="matrix(1,0,0,1,341.273,496.259)" xml:space="preserve"><tspan>l</tspan></text><text fill="#000100" font-family="Courier New" font-size="8" transform="matrix(1,0,0,1,267.058,462.796)" xml:space="preserve"><tspan>c</tspan></text><text fill="#000100" font-family="Courier New" font-size="8" transform="matrix(1,0,0,1,271.396,512.562)" xml:space="preserve"><tspan>e</tspan></text><text fill="#000100" font-family="Courier New" font-size="8" transform="matrix(1,0,0,1,280.471,531.904)" xml:space="preserve"><tspan>h</tspan></text><text fill="#000100" font-family="Courier New" font-size="8" transform="matrix(1,0,0,1,232.113,539.203)" xml:space="preserve"><tspan>f</tspan></text><text fill="#000100" font-family="Courier New" font-size="8" transform="matrix(1,0,0,1,308.483,575.086)" xml:space="preserve"><tspan>i</tspan></text><text fill="#000100" font-family="Courier New" font-size="8" transform="matrix(1,0,0,1,330.349,557.385)" xml:space="preserve"><tspan>j</tspan></text><text fill="#000100" font-family="Courier New" font-size="8" transform="matrix(1,0,0,1,250.173,560.558)" xml:space="preserve"><tspan>g</tspan></text><text fill="#000100" font-family="Courier New" font-size="8" transform="matrix(1,0,0,1,242.749,480.162)" xml:space="preserve"><tspan>d</tspan></text><text fill="#000100" font-family="Courier New" font-size="8" transform="matrix(1,0,0,1,316.915,221.066)" xml:space="preserve"><tspan>cos</tspan></text><text fill="#000100" font-family="Courier New" font-size="8" transform="matrix(1,0,0,1,263.481,150.99)" xml:space="preserve"><tspan>sin</tspan></text><text fill="#000100" font-family="Courier New" font-size="8" transform="matrix(1,0,0,1,288.774,174.507)" xml:space="preserve"><tspan>a</tspan></text><text fill="#000100" font-family="Courier New" font-size="8" transform="matrix(1,0,0,1,256.885,200.415)" xml:space="preserve"><tspan>b</tspan></text><text fill="#000100" font-family="Courier New" font-size="8" transform="matrix(1,0,0,1,264.406,220.395)" xml:space="preserve"><tspan>K</tspan></text><text fill="#000100" font-family="Courier New" font-size="8" transform="matrix(1,0,0,1,302.737,195.103)" xml:space="preserve"><tspan>l</tspan></text><text fill="#000100" font-family="Courier New" font-size="8" transform="matrix(1,0,0,1,229.755,165.98)" xml:space="preserve"><tspan>c</tspan></text><text fill="#000100" font-family="Courier New" font-size="8" transform="matrix(1,0,0,1,237.86,214.906)" xml:space="preserve"><tspan>e</tspan></text><text fill="#000100" font-family="Courier New" font-size="8" transform="matrix(1,0,0,1,249.846,229.09)" xml:space="preserve"><tspan>h</tspan></text><text fill="#000100" font-family="Courier New" font-size="8" transform="matrix(1,0,0,1,203.578,233.218)" xml:space="preserve"><tspan>f</tspan></text><text fill="#000100" font-family="Courier New" font-size="8" transform="matrix(1,0,0,1,272.948,261.474)" xml:space="preserve"><tspan>i</tspan></text><text fill="#000100" font-family="Courier New" font-size="8" transform="matrix(1,0,0,1,289.262,247.692)" xml:space="preserve"><tspan>j</tspan></text><text fill="#000100" font-family="Courier New" font-size="8" transform="matrix(1,0,0,1,215.06,250.175)" xml:space="preserve"><tspan>g</tspan></text><text fill="#000100" font-family="Courier New" font-size="8" transform="matrix(1,0,0,1,212.738,178.847)" xml:space="preserve"><tspan>d</tspan></text><text fill="#000100" font-family="Courier New" font-size="8" transform="matrix(1,0,0,1,205.506,463.356)" xml:space="preserve"><tspan>yc</tspan></text><text fill="#000100" font-family="Courier New" font-size="8" transform="matrix(1,0,0,1,205.506,478.772)" xml:space="preserve"><tspan>yd</tspan></text><text fill="#000100" font-family="Courier New" font-size="8" transform="matrix(1,0,0,1,205.506,511.47)" xml:space="preserve"><tspan>ye</tspan></text><text fill="#000100" font-family="Courier New" font-size="8" transform="matrix(1,0,0,1,205.506,541.853)" xml:space="preserve"><tspan>yf</tspan></text><text fill="#000100" font-family="Courier New" font-size="8" transform="matrix(1,0,0,1,205.506,560.558)" xml:space="preserve"><tspan>yg</tspan></text><text fill="#000100" font-family="Courier New" font-size="8" transform="matrix(1,0,0,1,205.506,573.441)" xml:space="preserve"><tspan>yi</tspan></text></svg>
